<svg id="Logo_Main" data-name="Logo Main" xmlns="http://www.w3.org/2000/svg" xmlns:xlink="http://www.w3.org/1999/xlink" width="279.82" height="41.001" viewBox="0 0 279.82 41.001">
  <defs>
    <clipPath id="clip-path">
      <rect id="Rectangle_1" data-name="Rectangle 1" width="279.82" height="41.001" transform="translate(0 0)" fill="none"/>
    </clipPath>
  </defs>
  <g id="Group_1" data-name="Group 1" transform="translate(0 0)" clip-path="url(#clip-path)">
    <path id="Path_1" data-name="Path 1" d="M91.946,20.542A20.133,20.133,0,0,1,89.331,30.8a19.069,19.069,0,0,1-6.606,6.95,20.257,20.257,0,0,1-6.58,2.533,43.788,43.788,0,0,1-8.478.716H53.214V.006H68.08a38.829,38.829,0,0,1,8.644.84,20.075,20.075,0,0,1,6.11,2.38A18.621,18.621,0,0,1,89.51,10.2a20.977,20.977,0,0,1,2.436,10.337m-10.929-.083a15.045,15.045,0,0,0-1.472-6.923,10.286,10.286,0,0,0-4.666-4.5,12.131,12.131,0,0,0-3.317-1.087,33.071,33.071,0,0,0-5.106-.29H63.785V33.314h2.671a31.921,31.921,0,0,0,5.533-.343,12.043,12.043,0,0,0,3.44-1.253,10.181,10.181,0,0,0,4.24-4.418,15.541,15.541,0,0,0,1.348-6.841" fill="#031d44"/>
    <path id="Path_2" data-name="Path 2" d="M140.788,40.995H129.872l-2.855-8.285H111.848l-2.855,8.285H98.34L113.48.006h12.168Zm-16.313-15.8L119.433,10.51l-5.044,14.684Z" fill="#031d44"/>
    <path id="Path_3" data-name="Path 3" d="M180.9,41H151.33V.006H161.9V33.067H180.9Z" fill="#031d44"/>
    <path id="Path_4" data-name="Path 4" d="M232.005,40.995H221.087l-2.855-8.285H203.065l-2.856,8.285H189.557L204.7.006h12.167Zm-16.313-15.8L210.649,10.51,205.6,25.194Z" fill="#031d44"/>
    <path id="Path_5" data-name="Path 5" d="M279.82,41H269.634l-17.4-28.134V41h-9.689V.006h12.635l14.947,23.481V.006h9.691Z" fill="#031d44"/>
    <path id="Path_6" data-name="Path 6" d="M0,41V26.163l24.827,3L23.489,41Z" fill="#0567fe"/>
    <path id="Path_7" data-name="Path 7" d="M41,41H26.161l3-24.827L41,17.512Z" fill="#0567fe"/>
    <path id="Path_8" data-name="Path 8" d="M41,0V14.838l-24.827-3L17.51,0Z" fill="#0567fe"/>
    <path id="Path_9" data-name="Path 9" d="M0,0H14.838l-3,24.827L0,23.489Z" fill="#0567fe"/>
  </g>
</svg>
