<svg xmlns="http://www.w3.org/2000/svg" width="22.4" height="28" viewBox="0 0 22.4 28">
  <path id="location_on_FILL1_wght400_GRAD0_opsz48_1_" data-name="location_on_FILL1_wght400_GRAD0_opsz48 (1)" d="M171.2-866.35a2.352,2.352,0,0,0,1.729-.721,2.367,2.367,0,0,0,.717-1.732,2.352,2.352,0,0,0-.721-1.729,2.367,2.367,0,0,0-1.733-.718,2.352,2.352,0,0,0-1.729.721,2.367,2.367,0,0,0-.718,1.733,2.352,2.352,0,0,0,.721,1.729A2.368,2.368,0,0,0,171.2-866.35Zm0,14.35a46.535,46.535,0,0,1-8.418-8.908A13.851,13.851,0,0,1,160-868.52a10.827,10.827,0,0,1,3.378-8.365A11.188,11.188,0,0,1,171.2-880a11.188,11.188,0,0,1,7.822,3.115,10.827,10.827,0,0,1,3.378,8.365,13.851,13.851,0,0,1-2.782,7.612A46.537,46.537,0,0,1,171.2-852Z" transform="translate(-160 880)" fill="#0567fe"/>
</svg>
